<?xml version="1.0" encoding="utf-8"?>
<!-- Generator: Adobe Illustrator 19.2.0, SVG Export Plug-In . SVG Version: 6.00 Build 0)  -->
<svg version="1.1" id="Layer_1" xmlns="http://www.w3.org/2000/svg" xmlns:xlink="http://www.w3.org/1999/xlink" x="0px" y="0px"
	 viewBox="0 0 960 960" style="enable-background:new 0 0 960 960;" xml:space="preserve">
<style type="text/css">
	.st0{fill:#333333;}
	.st1{fill:#4D4D4D;}
	.st2{fill:#CCCCCC;}
	.st3{fill:#FBB03B;}
	.st4{fill:none;stroke:#FBB03B;stroke-width:5.3909;stroke-linecap:round;stroke-miterlimit:10;}
</style>
<g>
	<path class="st0" d="M798.5,798.5L798.5,798.5c-10.5,10.5-27.6,10.5-38.1,0l-410-410l38.1-38.1l410,410
		C809,770.9,809,788,798.5,798.5z"/>
	<path class="st1" d="M771.8,771.8L771.8,771.8c-10.5,10.5-27.6,10.5-38.1,0l-410-410l38.1-38.1l410,410
		C782.3,744.2,782.3,761.3,771.8,771.8z"/>
	
		<rect x="384.7" y="314.2" transform="matrix(0.7071 -0.7071 0.7071 0.7071 -170.519 411.6461)" class="st2" width="53.9" height="194.9"/>
	<path class="st3" d="M256.5,245l51.4,26.2c3.3,1.7,7.3,1,9.9-1.6l40.8-40.8c5.9-5.9,15.8-0.8,14.5,7.4l-9,57
		c-0.6,3.7,1.3,7.3,4.6,9l51.4,26.2c7.4,3.8,5.6,14.8-2.5,16.1l-57,9c-3.7,0.6-6.5,3.4-7.1,7.1l-9,57c-1.3,8.2-12.3,9.9-16.1,2.5
		l-26.2-51.4c-1.7-3.3-5.3-5.1-9-4.6l-57,9c-8.2,1.3-13.2-8.6-7.4-14.5l40.8-40.8c2.6-2.6,3.3-6.6,1.6-9.9L245,256.5
		C241.2,249.1,249.1,241.2,256.5,245z"/>
	<line class="st4" x1="225.1" y1="307.3" x2="153.6" y2="302.6"/>
	<line class="st4" x1="280.5" y1="406.4" x2="257.2" y2="471"/>
	<line class="st4" x1="307.3" y1="225.1" x2="302.6" y2="153.6"/>
	<line class="st4" x1="406.4" y1="280.5" x2="471" y2="257.2"/>
	<line class="st4" x1="204.8" y1="389.9" x2="176.1" y2="418.6"/>
	<line class="st4" x1="221.2" y1="221.2" x2="192.5" y2="192.5"/>
	<line class="st4" x1="392.1" y1="206.9" x2="420.8" y2="178.2"/>
</g>
</svg>
